<?xml version="1.0" encoding="UTF-8"?>
<svg width="350" height="200" xmlns="http://www.w3.org/2000/svg">
  <rect width="350" height="200" fill="#1A1B27"/>
  <g transform="translate(20, 20)">
    <path d="
    M 80 80
    L 80 0
    A 80 80 0 0 1 156.2383473213775 104.24282157062191
    Z
  " fill="#850000" stroke="#FFD700" stroke-width="2"/>
<path d="
    M 80 80
    L 156.2383473213775 104.24282157062191
    A 80 80 0 0 1 46.98725307837279 152.87083463696976
    Z
  " fill="#007169" stroke="#FFD700" stroke-width="2"/>
<path d="
    M 80 80
    L 46.98725307837279 152.87083463696976
    A 80 80 0 0 1 0.4831235635856217 71.22125511271636
    Z
  " fill="#006075" stroke="#FFD700" stroke-width="2"/>
<path d="
    M 80 80
    L 0.4831235635856217 71.22125511271636
    A 80 80 0 0 1 80.0502654791501 0.000015791366521966665
    Z
  " fill="#832500" stroke="#FFD700" stroke-width="2"/>
    
      <text x="120.35832116232001" y="44.48380253218528" font-size="9" font-weight="bold" text-anchor="middle" dominant-baseline="middle" fill="white" stroke="black" stroke-width="0.5" paint-order="stroke">
        TypeScript
      </text>
      <text x="120.35832116232001" y="56.48380253218528" font-size="9" font-weight="bold" text-anchor="middle" dominant-baseline="middle" fill="white" stroke="black" stroke-width="0.5" paint-order="stroke">
        29.90%
      </text>
    

      <text x="100.33204872945885" y="119.67940229975554" font-size="9" font-weight="bold" text-anchor="middle" dominant-baseline="middle" fill="white" stroke="black" stroke-width="0.5" paint-order="stroke">
        C#
      </text>
      <text x="100.33204872945885" y="131.67940229975554" font-size="9" font-weight="bold" text-anchor="middle" dominant-baseline="middle" fill="white" stroke="black" stroke-width="0.5" paint-order="stroke">
        26.87%
      </text>
    

      <text x="36.55286755903469" y="98.74563966959067" font-size="9" font-weight="bold" text-anchor="middle" dominant-baseline="middle" fill="white" stroke="black" stroke-width="0.5" paint-order="stroke">
        HTML
      </text>
      <text x="36.55286755903469" y="110.74563966959067" font-size="9" font-weight="bold" text-anchor="middle" dominant-baseline="middle" fill="white" stroke="black" stroke-width="0.5" paint-order="stroke">
        19.98%
      </text>
    

      <text x="46.652564069264464" y="36.744818926148156" font-size="9" font-weight="bold" text-anchor="middle" dominant-baseline="middle" fill="white" stroke="black" stroke-width="0.5" paint-order="stroke">
        Others
      </text>
      <text x="46.652564069264464" y="48.744818926148156" font-size="9" font-weight="bold" text-anchor="middle" dominant-baseline="middle" fill="white" stroke="black" stroke-width="0.5" paint-order="stroke">
        23.26%
      </text>
    
  </g>
  
  <g transform="translate(220, 30)">
    
        <rect x="0" y="0" width="12" height="12" fill="#850000" stroke="#FFD700" stroke-width="1"/>
        <text x="16" y="10" font-size="10" fill="#ffffff">TypeScript(11535 bytes)</text>
      

        <rect x="0" y="20" width="12" height="12" fill="#007169" stroke="#FFD700" stroke-width="1"/>
        <text x="16" y="30" font-size="10" fill="#ffffff">C#(10365 bytes)</text>
      

        <rect x="0" y="40" width="12" height="12" fill="#006075" stroke="#FFD700" stroke-width="1"/>
        <text x="16" y="50" font-size="10" fill="#ffffff">HTML(7706 bytes)</text>
      

        <rect x="0" y="60" width="12" height="12" fill="#832500" stroke="#FFD700" stroke-width="1"/>
        <text x="16" y="70" font-size="10" fill="#ffffff">Others(8972 bytes)</text>
      
  </g>
</svg>