<?xml version="1.0" encoding="UTF-8"?>
<svg width="350" height="200" xmlns="http://www.w3.org/2000/svg">
  <rect width="350" height="200" fill="#1A1B27"/>
  <g transform="translate(20, 20)">
    <path d="
    M 80 80
    L 80 0
    A 80 80 0 0 1 158.47749704595594 95.53326937260715
    Z
  " fill="#004E89" stroke="#FFFFFF44" stroke-width="2"/>
<path d="
    M 80 80
    L 158.47749704595594 95.53326937260715
    A 80 80 0 0 1 60.39706751158781 157.5611051871668
    Z
  " fill="#9D0208" stroke="#FFFFFF44" stroke-width="2"/>
<path d="
    M 80 80
    L 60.39706751158781 157.5611051871668
    A 80 80 0 0 1 3.4338381674743204 103.18669580245289
    Z
  " fill="#007F5F" stroke="#FFFFFF44" stroke-width="2"/>
<path d="
    M 80 80
    L 3.4338381674743204 103.18669580245289
    A 80 80 0 0 1 8.719478064930556 43.6807600208363
    Z
  " fill="#B78727" stroke="#FFFFFF44" stroke-width="2"/>
<path d="
    M 80 80
    L 8.719478064930556 43.6807600208363
    A 80 80 0 0 1 80.0502654791501 0.000015791366521966665
    Z
  " fill="#3C096C" stroke="#FFFFFF44" stroke-width="2"/>
    
      <text x="118.63557083759714" y="42.262125684712075" font-size="9" font-weight="bold" text-anchor="middle" dominant-baseline="middle" fill="white" stroke="black" stroke-width="0.5" paint-order="stroke">
        TypeScript
      </text>
      <text x="118.63557083759714" y="54.262125684712075" font-size="9" font-weight="bold" text-anchor="middle" dominant-baseline="middle" fill="white" stroke="black" stroke-width="0.5" paint-order="stroke">
        28.11%
      </text>
    

      <text x="106.72499336353685" y="116.25842791348148" font-size="9" font-weight="bold" text-anchor="middle" dominant-baseline="middle" fill="white" stroke="black" stroke-width="0.5" paint-order="stroke">
        Assembly
      </text>
      <text x="106.72499336353685" y="128.25842791348148" font-size="9" font-weight="bold" text-anchor="middle" dominant-baseline="middle" fill="white" stroke="black" stroke-width="0.5" paint-order="stroke">
        25.83%
      </text>
    

      <text x="45.47607388407846" y="110.1676447331367" font-size="9" font-weight="bold" text-anchor="middle" dominant-baseline="middle" fill="white" stroke="black" stroke-width="0.5" paint-order="stroke">
        C#
      </text>
      <text x="45.47607388407846" y="122.1676447331367" font-size="9" font-weight="bold" text-anchor="middle" dominant-baseline="middle" fill="white" stroke="black" stroke-width="0.5" paint-order="stroke">
        16.38%
      </text>
    

      <text x="30.196089300841038" y="69.57614658129368" font-size="9" font-weight="bold" text-anchor="middle" dominant-baseline="middle" fill="white" stroke="black" stroke-width="0.5" paint-order="stroke">
        HTML
      </text>
      <text x="30.196089300841038" y="81.57614658129368" font-size="9" font-weight="bold" text-anchor="middle" dominant-baseline="middle" fill="white" stroke="black" stroke-width="0.5" paint-order="stroke">
        12.18%
      </text>
    

      <text x="53.88846629357822" y="31.359786497973545" font-size="9" font-weight="bold" text-anchor="middle" dominant-baseline="middle" fill="white" stroke="black" stroke-width="0.5" paint-order="stroke">
        Others
      </text>
      <text x="53.88846629357822" y="43.359786497973545" font-size="9" font-weight="bold" text-anchor="middle" dominant-baseline="middle" fill="white" stroke="black" stroke-width="0.5" paint-order="stroke">
        17.51%
      </text>
    
  </g>
  
  <g transform="translate(220, 30)">
    
        <rect x="0" y="0" width="12" height="12" fill="#004E89" stroke="#FFFFFF44" stroke-width="1"/>
        <text x="16" y="10" font-size="10" fill="#ffffff">TypeScript(17789 bytes)</text>
      

        <rect x="0" y="20" width="12" height="12" fill="#9D0208" stroke="#FFFFFF44" stroke-width="1"/>
        <text x="16" y="30" font-size="10" fill="#ffffff">Assembly(16345 bytes)</text>
      

        <rect x="0" y="40" width="12" height="12" fill="#007F5F" stroke="#FFFFFF44" stroke-width="1"/>
        <text x="16" y="50" font-size="10" fill="#ffffff">C#(10365 bytes)</text>
      

        <rect x="0" y="60" width="12" height="12" fill="#B78727" stroke="#FFFFFF44" stroke-width="1"/>
        <text x="16" y="70" font-size="10" fill="#ffffff">HTML(7706 bytes)</text>
      

        <rect x="0" y="80" width="12" height="12" fill="#3C096C" stroke="#FFFFFF44" stroke-width="1"/>
        <text x="16" y="90" font-size="10" fill="#ffffff">Others(11085 bytes)</text>
      
  </g>
</svg>