<?xml version="1.0" encoding="UTF-8"?>
<svg width="350" height="200" xmlns="http://www.w3.org/2000/svg">
  <rect width="350" height="200" fill="#1A1B27"/>
  <g transform="translate(20, 20)">
    <path d="
    M 80 80
    L 80 0
    A 80 80 0 0 1 133.2809493947401 139.6752916339346
    Z
  " fill="#004E89" stroke="#FFFFFF44" stroke-width="2"/>
<path d="
    M 80 80
    L 133.2809493947401 139.6752916339346
    A 80 80 0 0 1 29.862990290886763 142.34003735504402
    Z
  " fill="#9D0208" stroke="#FFFFFF44" stroke-width="2"/>
<path d="
    M 80 80
    L 29.862990290886763 142.34003735504402
    A 80 80 0 0 1 0.9230251890633951 67.88257227170307
    Z
  " fill="#007F5F" stroke="#FFFFFF44" stroke-width="2"/>
<path d="
    M 80 80
    L 0.9230251890633951 67.88257227170307
    A 80 80 0 0 1 26.644102510823146 20.39171028183705
    Z
  " fill="#B78727" stroke="#FFFFFF44" stroke-width="2"/>
<path d="
    M 80 80
    L 26.644102510823146 20.39171028183705
    A 80 80 0 0 1 80.0502654791501 0.000015791366521966665
    Z
  " fill="#3C096C" stroke="#FFFFFF44" stroke-width="2"/>
    
      <text x="126.7164471228306" y="56.17940606433747" font-size="9" font-weight="bold" text-anchor="middle" dominant-baseline="middle" fill="white" stroke="black" stroke-width="0.5" paint-order="stroke">
        TypeScript
      </text>
      <text x="126.7164471228306" y="68.17940606433747" font-size="9" font-weight="bold" text-anchor="middle" dominant-baseline="middle" fill="white" stroke="black" stroke-width="0.5" paint-order="stroke">
        38.40%
      </text>
    

      <text x="81.28791052712597" y="123.9834101124975" font-size="9" font-weight="bold" text-anchor="middle" dominant-baseline="middle" fill="white" stroke="black" stroke-width="0.5" paint-order="stroke">
        C#
      </text>
      <text x="81.28791052712597" y="135.9834101124975" font-size="9" font-weight="bold" text-anchor="middle" dominant-baseline="middle" fill="white" stroke="black" stroke-width="0.5" paint-order="stroke">
        22.38%
      </text>
    

      <text x="33.39644437708945" y="92.11376833522729" font-size="9" font-weight="bold" text-anchor="middle" dominant-baseline="middle" fill="white" stroke="black" stroke-width="0.5" paint-order="stroke">
        HTML
      </text>
      <text x="33.39644437708945" y="104.11376833522729" font-size="9" font-weight="bold" text-anchor="middle" dominant-baseline="middle" fill="white" stroke="black" stroke-width="0.5" paint-order="stroke">
        16.64%
      </text>
    

      <text x="36.03418449047218" y="50.18808981660306" font-size="9" font-weight="bold" text-anchor="middle" dominant-baseline="middle" fill="white" stroke="black" stroke-width="0.5" paint-order="stroke">
        C++
      </text>
      <text x="36.03418449047218" y="62.18808981660306" font-size="9" font-weight="bold" text-anchor="middle" dominant-baseline="middle" fill="white" stroke="black" stroke-width="0.5" paint-order="stroke">
        10.96%
      </text>
    

      <text x="62.164730539281635" y="27.28915368714064" font-size="9" font-weight="bold" text-anchor="middle" dominant-baseline="middle" fill="white" stroke="black" stroke-width="0.5" paint-order="stroke">
        Others
      </text>
      <text x="62.164730539281635" y="39.28915368714064" font-size="9" font-weight="bold" text-anchor="middle" dominant-baseline="middle" fill="white" stroke="black" stroke-width="0.5" paint-order="stroke">
        11.63%
      </text>
    
  </g>
  
  <g transform="translate(220, 30)">
    
        <rect x="0" y="0" width="12" height="12" fill="#004E89" stroke="#FFFFFF44" stroke-width="1"/>
        <text x="16" y="10" font-size="10" fill="#ffffff">TypeScript(17789 bytes)</text>
      

        <rect x="0" y="20" width="12" height="12" fill="#9D0208" stroke="#FFFFFF44" stroke-width="1"/>
        <text x="16" y="30" font-size="10" fill="#ffffff">C#(10365 bytes)</text>
      

        <rect x="0" y="40" width="12" height="12" fill="#007F5F" stroke="#FFFFFF44" stroke-width="1"/>
        <text x="16" y="50" font-size="10" fill="#ffffff">HTML(7706 bytes)</text>
      

        <rect x="0" y="60" width="12" height="12" fill="#B78727" stroke="#FFFFFF44" stroke-width="1"/>
        <text x="16" y="70" font-size="10" fill="#ffffff">C++(5076 bytes)</text>
      

        <rect x="0" y="80" width="12" height="12" fill="#3C096C" stroke="#FFFFFF44" stroke-width="1"/>
        <text x="16" y="90" font-size="10" fill="#ffffff">Others(5385 bytes)</text>
      
  </g>
</svg>