<?xml version="1.0" encoding="UTF-8"?>
<svg width="350" height="200" xmlns="http://www.w3.org/2000/svg">
  <rect width="350" height="200" fill="#1A1B27"/>
  <g transform="translate(20, 20)">
    <path d="
    M 80 80
    L 80 0
    A 80 80 0 0 1 147.1665553406467 123.45864521210758
    Z
  " fill="#004E89" stroke="#FFFFFF44" stroke-width="2"/>
<path d="
    M 80 80
    L 147.1665553406467 123.45864521210758
    A 80 80 0 0 1 43.591214975307714 151.2348255632436
    Z
  " fill="#9D0208" stroke="#FFFFFF44" stroke-width="2"/>
<path d="
    M 80 80
    L 43.591214975307714 151.2348255632436
    A 80 80 0 0 1 0.2918994408758948 73.17221080754831
    Z
  " fill="#007F5F" stroke="#FFFFFF44" stroke-width="2"/>
<path d="
    M 80 80
    L 0.2918994408758948 73.17221080754831
    A 80 80 0 0 1 80.0502654791501 0.000015791366521966665
    Z
  " fill="#B78727" stroke="#FFFFFF44" stroke-width="2"/>
    
      <text x="123.92085303633323" y="50.10525855840204" font-size="9" font-weight="bold" text-anchor="middle" dominant-baseline="middle" fill="white" stroke="black" stroke-width="0.5" paint-order="stroke">
        C#
      </text>
      <text x="123.92085303633323" y="62.10525855840204" font-size="9" font-weight="bold" text-anchor="middle" dominant-baseline="middle" fill="white" stroke="black" stroke-width="0.5" paint-order="stroke">
        34.14%
      </text>
    

      <text x="92.95106712282453" y="122.29357990851469" font-size="9" font-weight="bold" text-anchor="middle" dominant-baseline="middle" fill="white" stroke="black" stroke-width="0.5" paint-order="stroke">
        TypeScript
      </text>
      <text x="92.95106712282453" y="134.2935799085147" font-size="9" font-weight="bold" text-anchor="middle" dominant-baseline="middle" fill="white" stroke="black" stroke-width="0.5" paint-order="stroke">
        23.38%
      </text>
    

      <text x="36.275785567353296" y="98.25269206187076" font-size="9" font-weight="bold" text-anchor="middle" dominant-baseline="middle" fill="white" stroke="black" stroke-width="0.5" paint-order="stroke">
        Assembly
      </text>
      <text x="36.275785567353296" y="110.25269206187076" font-size="9" font-weight="bold" text-anchor="middle" dominant-baseline="middle" fill="white" stroke="black" stroke-width="0.5" paint-order="stroke">
        18.84%
      </text>
    

      <text x="46.19862010907381" y="37.156184813875605" font-size="9" font-weight="bold" text-anchor="middle" dominant-baseline="middle" fill="white" stroke="black" stroke-width="0.5" paint-order="stroke">
        Others
      </text>
      <text x="46.19862010907381" y="49.156184813875605" font-size="9" font-weight="bold" text-anchor="middle" dominant-baseline="middle" fill="white" stroke="black" stroke-width="0.5" paint-order="stroke">
        23.65%
      </text>
    
  </g>
  
  <g transform="translate(220, 30)">
    
        <rect x="0" y="0" width="12" height="12" fill="#004E89" stroke="#FFFFFF44" stroke-width="1"/>
        <text x="16" y="10" font-size="10" fill="#ffffff">C#(32086 bytes)</text>
      

        <rect x="0" y="20" width="12" height="12" fill="#9D0208" stroke="#FFFFFF44" stroke-width="1"/>
        <text x="16" y="30" font-size="10" fill="#ffffff">TypeScript(21971 bytes)</text>
      

        <rect x="0" y="40" width="12" height="12" fill="#007F5F" stroke="#FFFFFF44" stroke-width="1"/>
        <text x="16" y="50" font-size="10" fill="#ffffff">Assembly(17704 bytes)</text>
      

        <rect x="0" y="60" width="12" height="12" fill="#B78727" stroke="#FFFFFF44" stroke-width="1"/>
        <text x="16" y="70" font-size="10" fill="#ffffff">Others(22231 bytes)</text>
      
  </g>
</svg>