<?xml version="1.0" encoding="UTF-8"?>
<svg width="350" height="200" xmlns="http://www.w3.org/2000/svg">
  <rect width="350" height="200" fill="#1A1B27"/>
  <g transform="translate(20, 20)">
    <path d="
    M 80 80
    L 80 0
    A 80 80 0 0 1 105.81826214647666 155.71933266832065
    Z
  " fill="#004E89" stroke="#FFFFFF44" stroke-width="2"/>
<path d="
    M 80 80
    L 105.81826214647666 155.71933266832065
    A 80 80 0 0 1 1.7761705190256123 96.7640240196512
    Z
  " fill="#9D0208" stroke="#FFFFFF44" stroke-width="2"/>
<path d="
    M 80 80
    L 1.7761705190256123 96.7640240196512
    A 80 80 0 0 1 19.8583394540493 27.246036482785136
    Z
  " fill="#007F5F" stroke="#FFFFFF44" stroke-width="2"/>
<path d="
    M 80 80
    L 19.8583394540493 27.246036482785136
    A 80 80 0 0 1 79.99999999999999 0
    Z
  " fill="#B78727" stroke="#FFFFFF44" stroke-width="2"/>
    
      <text x="129.32661120472915" y="65.82164887905331" font-size="9" font-weight="bold" text-anchor="middle" dominant-baseline="middle" fill="white" stroke="black" stroke-width="0.5" paint-order="stroke">
        TypeScript
      </text>
      <text x="129.32661120472915" y="77.82164887905331" font-size="9" font-weight="bold" text-anchor="middle" dominant-baseline="middle" fill="white" stroke="black" stroke-width="0.5" paint-order="stroke">
        44.77%
      </text>
    

      <text x="55.34996532411151" y="117.5014458435291" font-size="9" font-weight="bold" text-anchor="middle" dominant-baseline="middle" fill="white" stroke="black" stroke-width="0.5" paint-order="stroke">
        C#
      </text>
      <text x="55.34996532411151" y="129.5014458435291" font-size="9" font-weight="bold" text-anchor="middle" dominant-baseline="middle" fill="white" stroke="black" stroke-width="0.5" paint-order="stroke">
        26.87%
      </text>
    

      <text x="31.610144983556737" y="61.41342256657511" font-size="9" font-weight="bold" text-anchor="middle" dominant-baseline="middle" fill="white" stroke="black" stroke-width="0.5" paint-order="stroke">
        Assembly
      </text>
      <text x="31.610144983556737" y="73.41342256657511" font-size="9" font-weight="bold" text-anchor="middle" dominant-baseline="middle" fill="white" stroke="black" stroke-width="0.5" paint-order="stroke">
        14.82%
      </text>
    

      <text x="59.367033173983" y="28.45572835189389" font-size="9" font-weight="bold" text-anchor="middle" dominant-baseline="middle" fill="white" stroke="black" stroke-width="0.5" paint-order="stroke">
        Others
      </text>
      <text x="59.367033173983" y="40.45572835189389" font-size="9" font-weight="bold" text-anchor="middle" dominant-baseline="middle" fill="white" stroke="black" stroke-width="0.5" paint-order="stroke">
        13.54%
      </text>
    
  </g>
  
  <g transform="translate(220, 30)">
    
        <rect x="0" y="0" width="12" height="12" fill="#004E89" stroke="#FFFFFF44" stroke-width="1"/>
        <text x="16" y="10" font-size="10" fill="#ffffff">TypeScript(53472 bytes)</text>
      

        <rect x="0" y="20" width="12" height="12" fill="#9D0208" stroke="#FFFFFF44" stroke-width="1"/>
        <text x="16" y="30" font-size="10" fill="#ffffff">C#(32086 bytes)</text>
      

        <rect x="0" y="40" width="12" height="12" fill="#007F5F" stroke="#FFFFFF44" stroke-width="1"/>
        <text x="16" y="50" font-size="10" fill="#ffffff">Assembly(17704 bytes)</text>
      

        <rect x="0" y="60" width="12" height="12" fill="#B78727" stroke="#FFFFFF44" stroke-width="1"/>
        <text x="16" y="70" font-size="10" fill="#ffffff">Others(16165 bytes)</text>
      
  </g>
</svg>