<?xml version="1.0" encoding="UTF-8"?>
<svg width="350" height="200" xmlns="http://www.w3.org/2000/svg">
  <rect width="350" height="200" fill="#1A1B27"/>
  <g transform="translate(20, 20)">
    <path d="
    M 80 80
    L 80 0
    A 80 80 0 0 1 157.81300069312763 98.57786110216452
    Z
  " fill="#004E89" stroke="#FFFFFF44" stroke-width="2"/>
<path d="
    M 80 80
    L 157.81300069312763 98.57786110216452
    A 80 80 0 0 1 57.102115910794055 156.65302932198628
    Z
  " fill="#9D0208" stroke="#FFFFFF44" stroke-width="2"/>
<path d="
    M 80 80
    L 57.102115910794055 156.65302932198628
    A 80 80 0 0 1 0.20155527441352206 85.67522857491406
    Z
  " fill="#007F5F" stroke="#FFFFFF44" stroke-width="2"/>
<path d="
    M 80 80
    L 0.20155527441352206 85.67522857491406
    A 80 80 0 0 1 20.157616087729373 26.90678868540335
    Z
  " fill="#B78727" stroke="#FFFFFF44" stroke-width="2"/>
<path d="
    M 80 80
    L 20.157616087729373 26.90678868540335
    A 80 80 0 0 1 79.99999999999999 0
    Z
  " fill="#3C096C" stroke="#FFFFFF44" stroke-width="2"/>
    
      <text x="119.24638938451945" y="43.020637187335836" font-size="9" font-weight="bold" text-anchor="middle" dominant-baseline="middle" fill="white" stroke="black" stroke-width="0.5" paint-order="stroke">
        TypeScript
      </text>
      <text x="119.24638938451945" y="55.020637187335836" font-size="9" font-weight="bold" text-anchor="middle" dominant-baseline="middle" fill="white" stroke="black" stroke-width="0.5" paint-order="stroke">
        28.73%
      </text>
    

      <text x="104.97732408203714" y="117.31435422236937" font-size="9" font-weight="bold" text-anchor="middle" dominant-baseline="middle" fill="white" stroke="black" stroke-width="0.5" paint-order="stroke">
        C#
      </text>
      <text x="104.97732408203714" y="129.3143542223694" font-size="9" font-weight="bold" text-anchor="middle" dominant-baseline="middle" fill="white" stroke="black" stroke-width="0.5" paint-order="stroke">
        25.89%
      </text>
    

      <text x="40.98830284723606" y="105.27439024603086" font-size="9" font-weight="bold" text-anchor="middle" dominant-baseline="middle" fill="white" stroke="black" stroke-width="0.5" paint-order="stroke">
        HTML
      </text>
      <text x="40.98830284723606" y="117.27439024603086" font-size="9" font-weight="bold" text-anchor="middle" dominant-baseline="middle" fill="white" stroke="black" stroke-width="0.5" paint-order="stroke">
        19.25%
      </text>
    

      <text x="32.65517683795253" y="57.92306870841162" font-size="9" font-weight="bold" text-anchor="middle" dominant-baseline="middle" fill="white" stroke="black" stroke-width="0.5" paint-order="stroke">
        C++
      </text>
      <text x="32.65517683795253" y="69.92306870841162" font-size="9" font-weight="bold" text-anchor="middle" dominant-baseline="middle" fill="white" stroke="black" stroke-width="0.5" paint-order="stroke">
        12.68%
      </text>
    

      <text x="59.495888870535595" y="28.397572139297516" font-size="9" font-weight="bold" text-anchor="middle" dominant-baseline="middle" fill="white" stroke="black" stroke-width="0.5" paint-order="stroke">
        Others
      </text>
      <text x="59.495888870535595" y="40.397572139297516" font-size="9" font-weight="bold" text-anchor="middle" dominant-baseline="middle" fill="white" stroke="black" stroke-width="0.5" paint-order="stroke">
        13.45%
      </text>
    
  </g>
  
  <g transform="translate(220, 30)">
    
        <rect x="0" y="0" width="12" height="12" fill="#004E89" stroke="#FFFFFF44" stroke-width="1"/>
        <text x="16" y="10" font-size="10" fill="#ffffff">TypeScript(11499 bytes)</text>
      

        <rect x="0" y="20" width="12" height="12" fill="#9D0208" stroke="#FFFFFF44" stroke-width="1"/>
        <text x="16" y="30" font-size="10" fill="#ffffff">C#(10365 bytes)</text>
      

        <rect x="0" y="40" width="12" height="12" fill="#007F5F" stroke="#FFFFFF44" stroke-width="1"/>
        <text x="16" y="50" font-size="10" fill="#ffffff">HTML(7706 bytes)</text>
      

        <rect x="0" y="60" width="12" height="12" fill="#B78727" stroke="#FFFFFF44" stroke-width="1"/>
        <text x="16" y="70" font-size="10" fill="#ffffff">C++(5076 bytes)</text>
      

        <rect x="0" y="80" width="12" height="12" fill="#3C096C" stroke="#FFFFFF44" stroke-width="1"/>
        <text x="16" y="90" font-size="10" fill="#ffffff">Others(5385 bytes)</text>
      
  </g>
</svg>