<?xml version="1.0" encoding="UTF-8"?>
<svg width="350" height="200" xmlns="http://www.w3.org/2000/svg">
  <rect width="350" height="200" fill="#1A1B27"/>
  <g transform="translate(20, 20)">
    <path d="
    M 80 80
    L 80 0
    A 80 80 0 0 1 153.77499778796394 110.9394521830286
    Z
  " fill="#004E89" stroke="#FFFFFF44" stroke-width="2"/>
<path d="
    M 80 80
    L 153.77499778796394 110.9394521830286
    A 80 80 0 0 1 61.32437089152759 157.7895936318141
    Z
  " fill="#9D0208" stroke="#FFFFFF44" stroke-width="2"/>
<path d="
    M 80 80
    L 61.32437089152759 157.7895936318141
    A 80 80 0 0 1 0.18072727368104324 74.62564409054315
    Z
  " fill="#007F5F" stroke="#FFFFFF44" stroke-width="2"/>
<path d="
    M 80 80
    L 0.18072727368104324 74.62564409054315
    A 80 80 0 0 1 79.99999999999999 0
    Z
  " fill="#B78727" stroke="#FFFFFF44" stroke-width="2"/>
    
      <text x="121.63446817673815" y="46.31298030411764" font-size="9" font-weight="bold" text-anchor="middle" dominant-baseline="middle" fill="white" stroke="black" stroke-width="0.5" paint-order="stroke">
        C#
      </text>
      <text x="121.63446817673815" y="58.31298030411764" font-size="9" font-weight="bold" text-anchor="middle" dominant-baseline="middle" fill="white" stroke="black" stroke-width="0.5" paint-order="stroke">
        31.32%
      </text>
    

      <text x="102.6014988930356" y="118.60013730683025" font-size="9" font-weight="bold" text-anchor="middle" dominant-baseline="middle" fill="white" stroke="black" stroke-width="0.5" paint-order="stroke">
        TypeScript
      </text>
      <text x="102.6014988930356" y="130.60013730683025" font-size="9" font-weight="bold" text-anchor="middle" dominant-baseline="middle" fill="white" stroke="black" stroke-width="0.5" paint-order="stroke">
        22.43%
      </text>
    

      <text x="39.71598851743091" y="103.61753566507926" font-size="9" font-weight="bold" text-anchor="middle" dominant-baseline="middle" fill="white" stroke="black" stroke-width="0.5" paint-order="stroke">
        Assembly
      </text>
      <text x="39.71598851743091" y="115.61753566507926" font-size="9" font-weight="bold" text-anchor="middle" dominant-baseline="middle" fill="white" stroke="black" stroke-width="0.5" paint-order="stroke">
        22.32%
      </text>
    

      <text x="45.85288168944944" y="37.47638693823867" font-size="9" font-weight="bold" text-anchor="middle" dominant-baseline="middle" fill="white" stroke="black" stroke-width="0.5" paint-order="stroke">
        Others
      </text>
      <text x="45.85288168944944" y="49.47638693823867" font-size="9" font-weight="bold" text-anchor="middle" dominant-baseline="middle" fill="white" stroke="black" stroke-width="0.5" paint-order="stroke">
        23.93%
      </text>
    
  </g>
  
  <g transform="translate(220, 30)">
    
        <rect x="0" y="0" width="12" height="12" fill="#004E89" stroke="#FFFFFF44" stroke-width="1"/>
        <text x="16" y="10" font-size="10" fill="#ffffff">C#(24834 bytes)</text>
      

        <rect x="0" y="20" width="12" height="12" fill="#9D0208" stroke="#FFFFFF44" stroke-width="1"/>
        <text x="16" y="30" font-size="10" fill="#ffffff">TypeScript(17789 bytes)</text>
      

        <rect x="0" y="40" width="12" height="12" fill="#007F5F" stroke="#FFFFFF44" stroke-width="1"/>
        <text x="16" y="50" font-size="10" fill="#ffffff">Assembly(17704 bytes)</text>
      

        <rect x="0" y="60" width="12" height="12" fill="#B78727" stroke="#FFFFFF44" stroke-width="1"/>
        <text x="16" y="70" font-size="10" fill="#ffffff">Others(18975 bytes)</text>
      
  </g>
</svg>