<?xml version="1.0" encoding="UTF-8"?>
<svg width="350" height="200" xmlns="http://www.w3.org/2000/svg">
  <rect width="350" height="200" fill="#1A1B27"/>
  <g transform="translate(20, 20)">
    <path d="
    M 80 80
    L 80 0
    A 80 80 0 0 1 159.0616851695031 92.21678919186107
    Z
  " fill="#004E89" stroke="#FFFFFF44" stroke-width="2"/>
<path d="
    M 80 80
    L 159.0616851695031 92.21678919186107
    A 80 80 0 0 1 56.47677398141567 156.4634411838664
    Z
  " fill="#9D0208" stroke="#FFFFFF44" stroke-width="2"/>
<path d="
    M 80 80
    L 56.47677398141567 156.4634411838664
    A 80 80 0 0 1 2.848685460347184 101.15832377112032
    Z
  " fill="#007F5F" stroke="#FFFFFF44" stroke-width="2"/>
<path d="
    M 80 80
    L 2.848685460347184 101.15832377112032
    A 80 80 0 0 1 9.018513288102895 43.09974872485591
    Z
  " fill="#B78727" stroke="#FFFFFF44" stroke-width="2"/>
<path d="
    M 80 80
    L 9.018513288102895 43.09974872485591
    A 80 80 0 0 1 80.0502654791501 0.000015791366521966665
    Z
  " fill="#3C096C" stroke="#FFFFFF44" stroke-width="2"/>
    
      <text x="117.95902173558783" y="41.455988740212575" font-size="9" font-weight="bold" text-anchor="middle" dominant-baseline="middle" fill="white" stroke="black" stroke-width="0.5" paint-order="stroke">
        TypeScript
      </text>
      <text x="117.95902173558783" y="53.455988740212575" font-size="9" font-weight="bold" text-anchor="middle" dominant-baseline="middle" fill="white" stroke="black" stroke-width="0.5" paint-order="stroke">
        27.44%
      </text>
    

      <text x="106.53887320001688" y="116.37556146263346" font-size="9" font-weight="bold" text-anchor="middle" dominant-baseline="middle" fill="white" stroke="black" stroke-width="0.5" paint-order="stroke">
        Assembly
      </text>
      <text x="106.53887320001688" y="128.37556146263347" font-size="9" font-weight="bold" text-anchor="middle" dominant-baseline="middle" fill="white" stroke="black" stroke-width="0.5" paint-order="stroke">
        27.31%
      </text>
    

      <text x="44.10461825621291" y="108.80691841384117" font-size="9" font-weight="bold" text-anchor="middle" dominant-baseline="middle" fill="white" stroke="black" stroke-width="0.5" paint-order="stroke">
        C#
      </text>
      <text x="44.10461825621291" y="120.80691841384117" font-size="9" font-weight="bold" text-anchor="middle" dominant-baseline="middle" fill="white" stroke="black" stroke-width="0.5" paint-order="stroke">
        15.99%
      </text>
    

      <text x="30.279958628656033" y="68.71629996765103" font-size="9" font-weight="bold" text-anchor="middle" dominant-baseline="middle" fill="white" stroke="black" stroke-width="0.5" paint-order="stroke">
        HTML
      </text>
      <text x="30.279958628656033" y="80.71629996765103" font-size="9" font-weight="bold" text-anchor="middle" dominant-baseline="middle" fill="white" stroke="black" stroke-width="0.5" paint-order="stroke">
        11.89%
      </text>
    

      <text x="54.062829210472145" y="31.253501062252326" font-size="9" font-weight="bold" text-anchor="middle" dominant-baseline="middle" fill="white" stroke="black" stroke-width="0.5" paint-order="stroke">
        Others
      </text>
      <text x="54.062829210472145" y="43.253501062252326" font-size="9" font-weight="bold" text-anchor="middle" dominant-baseline="middle" fill="white" stroke="black" stroke-width="0.5" paint-order="stroke">
        17.38%
      </text>
    
  </g>
  
  <g transform="translate(220, 30)">
    
        <rect x="0" y="0" width="12" height="12" fill="#004E89" stroke="#FFFFFF44" stroke-width="1"/>
        <text x="16" y="10" font-size="10" fill="#ffffff">TypeScript(17789 bytes)</text>
      

        <rect x="0" y="20" width="12" height="12" fill="#9D0208" stroke="#FFFFFF44" stroke-width="1"/>
        <text x="16" y="30" font-size="10" fill="#ffffff">Assembly(17704 bytes)</text>
      

        <rect x="0" y="40" width="12" height="12" fill="#007F5F" stroke="#FFFFFF44" stroke-width="1"/>
        <text x="16" y="50" font-size="10" fill="#ffffff">C#(10365 bytes)</text>
      

        <rect x="0" y="60" width="12" height="12" fill="#B78727" stroke="#FFFFFF44" stroke-width="1"/>
        <text x="16" y="70" font-size="10" fill="#ffffff">HTML(7706 bytes)</text>
      

        <rect x="0" y="80" width="12" height="12" fill="#3C096C" stroke="#FFFFFF44" stroke-width="1"/>
        <text x="16" y="90" font-size="10" fill="#ffffff">Others(11269 bytes)</text>
      
  </g>
</svg>