<?xml version="1.0" encoding="UTF-8"?>
<svg width="350" height="200" xmlns="http://www.w3.org/2000/svg">
  <rect width="350" height="200" fill="#1A1B27"/>
  <g transform="translate(20, 20)">
    <path d="
    M 80 80
    L 80 0
    A 80 80 0 0 1 105.62787736633578 155.7839818279302
    Z
  " fill="#004E89" stroke="#FFFFFF44" stroke-width="2"/>
<path d="
    M 80 80
    L 105.62787736633578 155.7839818279302
    A 80 80 0 0 1 1.7551659937401638 96.66571184596819
    Z
  " fill="#9D0208" stroke="#FFFFFF44" stroke-width="2"/>
<path d="
    M 80 80
    L 1.7551659937401638 96.66571184596819
    A 80 80 0 0 1 19.924679508240686 27.170501915952258
    Z
  " fill="#007F5F" stroke="#FFFFFF44" stroke-width="2"/>
<path d="
    M 80 80
    L 19.924679508240686 27.170501915952258
    A 80 80 0 0 1 80.0502654791501 0.000015791366521966665
    Z
  " fill="#B78727" stroke="#FFFFFF44" stroke-width="2"/>
    
      <text x="129.3368494744183" y="65.88364096786061" font-size="9" font-weight="bold" text-anchor="middle" dominant-baseline="middle" fill="white" stroke="black" stroke-width="0.5" paint-order="stroke">
        TypeScript
      </text>
      <text x="129.3368494744183" y="77.88364096786061" font-size="9" font-weight="bold" text-anchor="middle" dominant-baseline="middle" fill="white" stroke="black" stroke-width="0.5" paint-order="stroke">
        44.81%
      </text>
    

      <text x="55.26801087054279" y="117.45490436878684" font-size="9" font-weight="bold" text-anchor="middle" dominant-baseline="middle" fill="white" stroke="black" stroke-width="0.5" paint-order="stroke">
        C#
      </text>
      <text x="55.26801087054279" y="129.45490436878686" font-size="9" font-weight="bold" text-anchor="middle" dominant-baseline="middle" fill="white" stroke="black" stroke-width="0.5" paint-order="stroke">
        26.85%
      </text>
    

      <text x="31.625999946166445" y="61.35262403533005" font-size="9" font-weight="bold" text-anchor="middle" dominant-baseline="middle" fill="white" stroke="black" stroke-width="0.5" paint-order="stroke">
        Assembly
      </text>
      <text x="31.625999946166445" y="73.35262403533005" font-size="9" font-weight="bold" text-anchor="middle" dominant-baseline="middle" fill="white" stroke="black" stroke-width="0.5" paint-order="stroke">
        14.82%
      </text>
    

      <text x="59.40996679615935" y="28.436302469348043" font-size="9" font-weight="bold" text-anchor="middle" dominant-baseline="middle" fill="white" stroke="black" stroke-width="0.5" paint-order="stroke">
        Others
      </text>
      <text x="59.40996679615935" y="40.43630246934804" font-size="9" font-weight="bold" text-anchor="middle" dominant-baseline="middle" fill="white" stroke="black" stroke-width="0.5" paint-order="stroke">
        13.53%
      </text>
    
  </g>
  
  <g transform="translate(220, 30)">
    
        <rect x="0" y="0" width="12" height="12" fill="#004E89" stroke="#FFFFFF44" stroke-width="1"/>
        <text x="16" y="10" font-size="10" fill="#ffffff">TypeScript(53544 bytes)</text>
      

        <rect x="0" y="20" width="12" height="12" fill="#9D0208" stroke="#FFFFFF44" stroke-width="1"/>
        <text x="16" y="30" font-size="10" fill="#ffffff">C#(32086 bytes)</text>
      

        <rect x="0" y="40" width="12" height="12" fill="#007F5F" stroke="#FFFFFF44" stroke-width="1"/>
        <text x="16" y="50" font-size="10" fill="#ffffff">Assembly(17704 bytes)</text>
      

        <rect x="0" y="60" width="12" height="12" fill="#B78727" stroke="#FFFFFF44" stroke-width="1"/>
        <text x="16" y="70" font-size="10" fill="#ffffff">Others(16165 bytes)</text>
      
  </g>
</svg>